HIERARCHY
ROOT pelvis
{
  OFFSET 0 100 0
  CHANNELS 6 Xposition Yposition Zposition Zrotation Xrotation Yrotation
  JOINT pelvis_right_femur
  {
    OFFSET -10.78128 -3.44521 -0.5502486
    CHANNELS 3 Zrotation Xrotation Yrotation
    JOINT right_femur_tibia
    {
      OFFSET -0.8047443 -44.0398 -0.1307829
      CHANNELS 3 Zrotation Xrotation Yrotation
      JOINT right_tibia_foot
      {
        OFFSET 3.006224 -47.83518 -5
        CHANNELS 3 Zrotation Xrotation Yrotation
        End Site
        {
          OFFSET 0 -5 15
        }
      }
    }
  }
  JOINT pelvis_left_femur
  {
    OFFSET 10.78128 -3.44521 -0.5502486
    CHANNELS 3 Zrotation Xrotation Yrotation
    JOINT left_femur_tibia
    {
      OFFSET 0.8047443 -44.0398 -0.1307829
      CHANNELS 3 Zrotation Xrotation Yrotation
      JOINT left_tibia_foot
      {
        OFFSET -4.370144 -48.10324 -4.275266
        CHANNELS 3 Zrotation Xrotation Yrotation
        End Site
        {
          OFFSET 0 -5 15
        }
      }
    }
  }
  JOINT pelvis_spine1
  {
    OFFSET 0 6.468898 -3.129235
    CHANNELS 3 Zrotation Xrotation Yrotation
    JOINT spine1
    {
      OFFSET 0 23.15396 4.99043
      CHANNELS 3 Zrotation Xrotation Yrotation
      JOINT spine2
      {
        OFFSET 0 20.79997 -5.064912
        CHANNELS 3 Zrotation Xrotation Yrotation
        JOINT neck
        {
          OFFSET 0 14.38658 9.616178
          CHANNELS 3 Zrotation Xrotation Yrotation
          End Site
          {
            OFFSET 0 20 0
          }
        }
      }
      JOINT right_manubrium
      {
        OFFSET -5.722621 16.35077 3.967754
        CHANNELS 3 Zrotation Xrotation Yrotation
        JOINT right_clavicle
        {
          OFFSET -13.16364 1.694482 -4.693211
          CHANNELS 3 Zrotation Xrotation Yrotation
          JOINT right_humerus
          {
            OFFSET -28.5034 -0.3100689 -2.792744
            CHANNELS 3 Zrotation Xrotation Yrotation
            JOINT right_radius
            {
              OFFSET -25.15693 0.02248979 -1.271978
              CHANNELS 3 Zrotation Xrotation Yrotation
              End Site
              {
                OFFSET -15 0 0
              }
            }
          }
        }
      }
      JOINT left_manubrium
      {
        OFFSET 5.722621 16.35077 3.967754
        CHANNELS 3 Zrotation Xrotation Yrotation
        JOINT left_clavicle
        {
          OFFSET 13.16364 1.694482 -4.693211
          CHANNELS 3 Zrotation Xrotation Yrotation
          JOINT left_humerus
          {
            OFFSET 29.39168 -1.063119 -2.237045
            CHANNELS 3 Zrotation Xrotation Yrotation
            JOINT left_radius
            {
              OFFSET 24.59957 -0.9528479 0.9047498
              CHANNELS 3 Zrotation Xrotation Yrotation
              End Site
              {
                OFFSET 15 -0 -0
              }
            }
          }
        }
      }
    }
  }
}
MOTION
Frames: 21
Frame Time: 0.0416666666667
-749.0825 103.1817 2923.58 -1.32775 -3.74676 -33.07317 2.587178 -24.9435 -1.117441 -0 6.050216 -0 -0.9855412 4.928187 -6.145304 -5.542839 16.74454 -5.998428 -0 24.11231 -0 -3.41972 -18.09789 12.47744 -0.1055016 -0.6261597 3.949723 3.544918 8.857892 -10.41196 0.8648244 19.81176 7.120949 2.16529 -30.41667 10.44422 -4.311094 -21.9379 10.88406 98.61721 30.95779 -25.10767 -0 0 11.56738 -14.06654 6.988089 1.483595 7.432012 -22.29877 0.626513 -85.94041 9.549176 15.02011 0 0 -19.01473 21.56346 11.17574 -19.11664
-753.3578 102.8467 2929.492 -1.840713 -3.748247 -33.13302 4.159533 -22.63626 0.3811233 -0 6.59847 -0 -0.8141458 4.942534 -6.666274 -5.001977 16.14853 -5.470317 -0 31.39081 -0 -3.94375 -15.55243 12.52322 -0.06218974 -0.7010203 3.882444 3.666051 9.032007 -10.42755 0.9184225 19.67872 7.086666 2.18364 -30.29871 10.37417 -3.738398 -21.55488 11.06833 98.02224 30.62995 -25.06621 -0 0 11.14586 -13.87212 7.446251 1.937777 7.414952 -22.40753 0.5215571 -86.01296 9.898166 14.79467 0 0 -19.42786 21.09941 11.22695 -18.1702
-757.7074 103.0858 2935.414 -2.654943 -4.114593 -33.47811 5.564025 -18.84922 1.888937 -0 8.577131 -0 -1.085908 4.158637 -7.012943 -4.278292 13.99557 -5.123973 -0 39.8097 -0 -4.453231 -12.44732 12.87765 -0.04527184 -0.7853887 3.915926 3.709271 9.316276 -10.34279 0.9794554 19.63162 6.917669 2.1185 -29.96684 10.17244 -3.206037 -21.35989 11.28185 97.23049 30.20877 -24.60766 -0 0 11.0375 -13.81435 7.83588 2.585069 7.219154 -22.43527 0.3103576 -86.14028 10.30661 14.90628 0 0 -19.46488 20.44121 11.3303 -16.97511
-761.9654 103.8458 2941.158 -3.540805 -4.808223 -34.12715 6.427565 -13.92551 3.024761 -0 10.75213 -0 -1.770475 2.545106 -7.02197 -3.515278 10.02686 -4.979643 -0 48.13797 -0 -4.849963 -9.443685 13.56237 -0.06734741 -0.8762818 4.061475 3.660608 9.677536 -10.15484 1.04702 19.67549 6.618298 1.970648 -29.45111 9.859817 -2.769025 -21.40083 11.49796 96.29583 29.75581 -23.72749 -0 0 11.32233 -13.90482 8.112502 3.365345 6.870315 -22.35506 0.03840704 -86.32432 10.73173 15.36775 0 0 -19.08066 19.6586 11.46436 -15.66609
-765.9931 104.9043 2946.565 -4.245131 -5.6761 -35.00993 6.602014 -8.43969 3.576712 -0 11.96851 -0 -2.71069 0.3734647 -6.600235 -2.81527 4.380056 -4.947575 -0 54.53617 -0 -5.016989 -7.185301 14.52045 -0.1273253 -0.973998 4.316013 3.522173 10.08624 -9.87406 1.123508 19.79656 6.201626 1.747848 -28.79534 9.465604 -2.452881 -21.69342 11.70131 95.26772 29.30215 -22.4631 -0 0 12.0237 -14.13401 8.274951 4.224905 6.405535 -22.15935 -0.2516184 -86.56864 11.13956 16.16052 0 0 -18.29363 18.80939 11.6173 -14.34586
-769.7333 105.9344 2951.58 -4.639268 -6.494738 -35.98589 6.258057 -2.97162 3.577827 -0 11.81094 -0 -3.683537 -1.986214 -5.786708 -2.122617 -2.271008 -4.864251 -0 57.11746 -0 -4.909261 -5.959881 15.62386 -0.2148197 -1.07881 4.662558 3.309362 10.51526 -9.521509 1.211281 19.96841 5.690351 1.465157 -28.05068 9.022275 -2.257345 -22.22087 11.88441 94.19251 28.85957 -20.88989 -0 0 13.11126 -14.47417 8.349467 5.116043 5.86736 -21.85786 -0.5250115 -86.87412 11.50715 17.23791 0 0 -17.17131 17.93562 11.78227 -13.08108
-773.2113 106.6308 2956.266 -4.787887 -7.036735 -36.92102 5.772851 2.072492 3.233078 -0 10.78655 -0 -4.520497 -4.373806 -4.746548 -1.239823 -8.91755 -4.577145 -0 54.80058 -0 -4.586724 -5.561853 16.71777 -0.3168724 -1.190171 5.076063 3.044342 10.94028 -9.123058 1.310904 20.16132 5.112758 1.1411 -27.26828 8.56078 -2.166179 -22.94598 12.04361 93.11188 28.43625 -19.10206 -0 0 14.52208 -14.88699 8.371885 5.997013 5.296568 -21.47052 -0.7560949 -87.23793 11.82069 18.5389 0 0 -15.80024 17.06939 11.95517 -11.91353
-776.492 106.8157 2960.762 -4.847246 -7.124769 -37.74939 5.477414 6.458023 2.764792 -0 9.782488 -0 -5.172081 -6.920967 -3.687611 -0.02197209 -14.64003 -4.045142 -0 47.90542 -0 -4.146604 -5.492669 17.63816 -0.4227164 -1.306566 5.528997 2.750576 11.34022 -8.70449 1.420637 20.34962 4.498131 0.7935953 -26.49457 8.107706 -2.157456 -23.8232 12.17668 92.06157 28.04627 -17.19447 -0 0 16.17943 -15.33164 8.374716 6.832005 4.727227 -21.02104 -0.9272625 -87.6524 12.07179 19.99867 0 0 -14.26382 16.24039 12.13377 -10.87477
-779.6436 106.4725 2965.236 -4.90248 -6.696507 -38.47556 5.452062 10.05535 2.314601 -0 9.404094 -0 -5.656283 -9.757483 -2.764336 1.413488 -18.91716 -3.40744 -0 38.13008 -0 -3.643971 -5.314252 18.24331 -0.523871 -1.424263 5.991669 2.451551 11.697 -8.291682 1.536028 20.51443 3.877026 0.4397683 -25.77093 7.685184 -2.210326 -24.79825 12.28228 91.07797 27.70716 -15.26594 -0 0 17.98808 -15.77006 8.381654 7.589221 4.187109 -20.53739 -1.029993 -88.09998 12.25483 21.54138 0 0 -12.64852 15.47893 12.31565 -9.993093
-782.7322 105.7127 2969.842 -4.917474 -5.881834 -39.14279 5.501592 12.86741 1.957158 -0 9.822589 -0 -5.958206 -12.62268 -2.033168 2.668875 -21.67535 -2.955497 -0 27.93959 -0 -3.117558 -4.896715 18.50632 -0.6109131 -1.536082 6.429834 2.171401 11.9971 -7.913371 1.649523 20.6436 3.285266 0.0989658 -25.13397 7.312083 -2.307592 -25.79809 12.36085 90.20965 27.42729 -13.43867 -0 0 19.81294 -16.17152 8.40714 8.239326 3.700996 -20.05789 -1.07015 -88.54746 12.36821 23.06366 0 0 -11.0679 14.81292 12.49532 -9.28829
-785.8288 104.7132 2974.705 -4.805924 -4.998166 -39.79759 5.295884 15.0793 1.74203 -0 11.06469 -0 -5.996938 -14.78415 -1.455718 3.27106 -23.15412 -2.993924 -0 19.63005 -0 -2.667896 -4.432481 18.56667 -0.6713801 -1.632641 6.806956 1.932761 12.23591 -7.599855 1.751327 20.7321 2.764386 -0.2059516 -24.61257 7.004281 -2.436066 -26.72995 12.41579 89.52019 27.19499 -11.86287 -0 0 21.47619 -16.51778 8.457073 8.757653 3.291496 -19.63273 -1.07228 -88.94909 12.41745 24.43634 0 0 -9.667924 14.26257 12.66402 -8.762046
-789.0109 103.6722 2979.912 -4.510596 -4.406194 -40.45173 4.566341 16.94672 1.693936 -0 13.3162 -0 -5.702535 -15.33376 -0.9454271 2.920239 -23.67589 -3.682866 -0 14.54667 -0 -2.436566 -4.247577 18.63515 -0.6922779 -1.705927 7.092373 1.751923 12.4189 -7.37624 1.831861 20.78255 2.354658 -0.4523031 -24.22473 6.774133 -2.587069 -27.50038 12.45269 89.07491 26.98364 -10.68799 -0 0 22.79432 -16.80434 8.528839 9.127194 2.976188 -19.31404 -1.073502 -89.26041 12.4143 25.53465 0 0 -8.593683 13.84131 12.81376 -8.401285
-792.3492 102.797 2985.499 -4.035129 -4.329359 -41.04773 3.246409 18.54028 1.801611 -0 16.9843 -0 -5.12426 -13.60223 -0.4608984 1.607072 -23.42168 -4.968067 -0 12.87084 -0 -2.482048 -4.576213 18.83238 -0.6657733 -1.751876 7.267867 1.636246 12.55532 -7.256651 1.884084 20.80407 2.086038 -0.6235267 -23.97994 6.630874 -2.757723 -28.04138 12.47588 88.92241 26.77269 -10.02154 -0 0 23.62993 -17.03352 8.611247 9.336156 2.765033 -19.14072 -1.107206 -89.451 12.37007 26.27214 0 0 -7.943268 13.56567 12.94203 -8.199727
-795.879 102.297 2991.428 -3.457645 -4.769396 -41.45966 1.527495 19.55576 2.018762 -0 22.50888 -0 -4.449652 -9.487262 -0.07797485 -0.3921119 -22.3357 -6.596957 -0 13.88462 -0 -2.695241 -5.442954 19.1211 -0.5929643 -1.769598 7.327226 1.586173 12.64847 -7.244439 1.903958 20.80901 1.974593 -0.7119676 -23.88541 6.5819 -2.951674 -28.32255 12.48508 89.086 26.56614 -9.90947 -0 0 23.91758 -17.20485 8.685567 9.371436 2.661232 -19.13006 -1.188759 -89.50621 12.28858 26.61074 0 0 -7.748058 13.46454 13.05231 -8.178723
-799.5666 102.3457 2997.566 -2.940935 -5.533539 -41.54866 -0.1620399 19.35337 2.261667 -0 29.98572 -0 -3.899839 -3.655396 0.03760358 -2.577134 -20.21403 -8.183629 -0 16.34216 -0 -2.837708 -6.669266 19.37113 -0.4832055 -1.758604 7.272255 1.598706 12.69035 -7.335688 1.889452 20.80906 2.02461 -0.7171614 -23.9496 6.632907 -3.177614 -28.34633 12.47471 89.56559 26.39446 -10.34221 -0 0 23.6584 -17.31134 8.727875 9.215902 2.664216 -19.27821 -1.311751 -89.42238 12.16413 26.55018 0 0 -7.984284 13.57633 13.14939 -8.387612
-803.2946 103.0095 3003.697 -2.693734 -6.32911 -41.24644 -1.307014 17.24933 2.428421 -0 38.71787 -0 -3.602043 2.502141 -0.2651831 -4.378681 -16.93172 -9.342442 -0 18.82428 -0 -2.663453 -7.976409 19.46604 -0.3513568 -1.716815 7.110944 1.668678 12.66268 -7.520946 1.839726 20.81232 2.231245 -0.6426329 -24.17987 6.785884 -3.445383 -28.13843 12.43574 90.33974 26.30412 -11.26579 -0 0 22.90774 -17.34288 8.71175 8.853155 2.771968 -19.56306 -1.451748 -89.20449 11.9844 26.11707 0 0 -8.591846 13.93488 13.23243 -8.884429
-806.8962 104.184 3009.59 -2.847594 -6.893554 -40.60443 -1.597939 12.94838 2.461676 -0 47.01675 -0 -3.565328 7.360602 -1.009401 -5.416473 -12.66486 -9.870882 -0 20.16838 -0 -2.054852 -9.155818 19.35561 -0.2157192 -1.64074 6.858539 1.787671 12.54187 -7.784294 1.755271 20.82177 2.58103 -0.493818 -24.57634 7.036264 -3.760551 -27.74156 12.35794 91.36342 26.34553 -12.58737 -0 0 21.76926 -17.29174 8.610948 8.276447 2.981809 -19.94584 -1.571926 -88.86832 11.73638 25.36171 0 0 -9.484731 14.55274 13.28916 -9.710158
-810.2377 105.5969 3015.093 -3.325442 -7.105489 -39.76254 -1.14979 6.836306 2.356162 -0 52.66434 -0 -3.748784 9.867629 -2.026332 -5.686241 -7.908133 -9.835521 -0 19.88564 -0 -1.115352 -10.21533 19.03358 -0.09639157 -1.527463 6.537883 1.943169 12.30597 -8.103088 1.638667 20.83467 3.052117 -0.2772689 -25.12699 7.371737 -4.119099 -27.20916 12.23192 92.56766 26.56355 -14.18392 -0 0 20.38568 -17.15562 8.403271 7.496099 3.290604 -20.37475 -1.629722 -88.44215 11.41325 24.35481 0 0 -10.55897 15.41085 13.29443 -10.86825
-813.2964 106.8971 3020.186 -3.853997 -7.002246 -38.86785 -0.4028085 -0.1540887 2.059317 -0 53.94595 -0 -4.083303 10.03004 -3.026908 -5.493657 -3.226082 -9.470238 -0 18.25111 -0 -0.1578487 -11.36757 18.49262 -0.01226486 -1.377413 6.17606 2.120267 11.94232 -8.451269 1.495346 20.84295 3.616356 -0.0006078628 -25.80723 7.774077 -4.504351 -26.59563 12.05139 93.86791 26.98763 -15.92327 -0 0 18.91426 -16.93762 8.077397 6.542203 3.694871 -20.79441 -1.585679 -87.9636 11.02024 23.17605 0 0 -11.70914 16.45807 13.21576 -12.31519
-816.1682 107.7805 3024.959 -4.136131 -6.701424 -38.01866 0.1862644 -7.009078 1.444602 -0 50.47777 -0 -4.419399 8.654845 -3.785505 -5.213563 1.03322 -9.00923 -0 15.98397 -0 0.4391173 -12.84495 17.71756 0.02362322 -1.197118 5.798954 2.305419 11.45489 -8.804801 1.33436 20.83421 4.241487 0.3262468 -26.58255 8.222144 -4.886728 -25.94608 11.81658 95.17648 27.61902 -17.68815 -0 0 17.49416 -16.64522 7.643164 5.464936 4.189196 -21.15861 -1.413667 -87.47327 10.5783 21.89958 0 0 -12.85045 17.61732 13.02568 -13.96015
-819.0064 108.0794 3029.561 -4.016174 -6.306228 -37.25876 0.3865201 -13.01732 0.4546302 -0 43.2437 -0 -4.547833 6.732629 -4.24959 -5.092841 4.790408 -8.592854 -0 13.84157 -0 0.4417918 -14.69451 16.72748 0.008930043 -1.001644 5.427724 2.489826 10.87142 -9.14528 1.169378 20.79371 4.890377 0.6879339 -27.40927 8.692898 -5.224405 -25.29186 11.53932 96.40785 28.41678 -19.38622 -0 0 16.22211 -16.2903 7.143646 4.337072 4.760886 -21.44077 -1.110605 -87.00988 10.12532 20.5884 0 0 -13.93348 18.79262 12.71813 -15.66796
